<svg width="163" height="66" viewBox="0 0 163 66" fill="none" xmlns="http://www.w3.org/2000/svg">
<path d="M17.213 7.25702V47.865H54.77" stroke="#082F49" stroke-width="12" stroke-miterlimit="10"/>
<path d="M3 40.608V62.078H20.245" stroke="#F97316" stroke-width="6" stroke-miterlimit="10"/>
<path d="M156.531 46.608V6H118.974" stroke="#F97316" stroke-width="12" stroke-miterlimit="10"/>
<path d="M81.8025 30.6379C82.4032 30.6379 82.9483 30.5498 83.438 30.3735C83.9341 30.1973 84.303 30.0242 84.5446 29.8545L85.798 32.3419C85.4912 32.603 84.9656 32.8675 84.2214 33.1351C83.4837 33.4028 82.6056 33.5366 81.5871 33.5366C80.6339 33.5366 79.7395 33.3702 78.9038 33.0372C78.0682 32.7042 77.3305 32.2374 76.6906 31.6368C76.0574 31.0297 75.5579 30.3213 75.1923 29.5118C74.8333 28.6957 74.6537 27.8111 74.6537 26.8579C74.6537 25.9047 74.8333 25.0201 75.1923 24.204C75.5514 23.3814 76.0476 22.6665 76.6809 22.0594C77.3207 21.4522 78.0584 20.9821 78.894 20.6492C79.7362 20.3097 80.6339 20.1399 81.5871 20.1399C82.6056 20.1399 83.4837 20.2738 84.2214 20.5415C84.9656 20.8091 85.4912 21.0735 85.798 21.3347L84.5446 23.8221C84.303 23.6458 83.9341 23.4728 83.438 23.3031C82.9483 23.1268 82.4032 23.0386 81.8025 23.0386C81.1366 23.0386 80.5556 23.1431 80.0594 23.352C79.5632 23.5544 79.1487 23.8351 78.8157 24.1942C78.4827 24.5533 78.2347 24.9581 78.0714 25.4085C77.9082 25.859 77.8266 26.3323 77.8266 26.8285C77.8266 27.3312 77.9082 27.8111 78.0714 28.2681C78.2347 28.7185 78.4827 29.1233 78.8157 29.4824C79.1487 29.8414 79.5632 30.1254 80.0594 30.3344C80.5556 30.5367 81.1366 30.6379 81.8025 30.6379ZM90.2153 26.8285C90.2153 27.5662 90.3654 28.2354 90.6657 28.836C90.9726 29.4301 91.3937 29.9035 91.929 30.256C92.4709 30.6086 93.0976 30.7848 93.8092 30.7848C94.5209 30.7848 95.1443 30.6086 95.6797 30.256C96.2216 29.9035 96.6427 29.4301 96.943 28.836C97.2498 28.2354 97.4032 27.5662 97.4032 26.8285C97.4032 26.0908 97.2498 25.4248 96.943 24.8307C96.6427 24.2366 96.2216 23.7633 95.6797 23.4108C95.1443 23.0517 94.5209 22.8722 93.8092 22.8722C93.0976 22.8722 92.4709 23.0517 91.929 23.4108C91.3937 23.7633 90.9726 24.2366 90.6657 24.8307C90.3654 25.4248 90.2153 26.0908 90.2153 26.8285ZM87.1697 26.8285C87.1697 25.8884 87.3361 25.0135 87.6691 24.204C88.0021 23.3879 88.4689 22.6763 89.0695 22.0691C89.6701 21.462 90.3752 20.9887 91.1848 20.6492C91.9943 20.3097 92.8691 20.1399 93.8092 20.1399C94.7624 20.1399 95.6405 20.3097 96.4435 20.6492C97.2531 20.9887 97.9549 21.462 98.549 22.0691C99.1496 22.6763 99.6132 23.3879 99.9396 24.204C100.273 25.0135 100.439 25.8884 100.439 26.8285C100.439 27.7751 100.279 28.6565 99.9592 29.4726C99.6393 30.2821 99.1823 30.9937 98.5882 31.6074C97.9941 32.2146 97.2923 32.6879 96.4827 33.0274C95.6732 33.3669 94.782 33.5366 93.8092 33.5366C92.8169 33.5366 91.9127 33.3669 91.0966 33.0274C90.2871 32.6879 89.5885 32.2146 89.0009 31.6074C88.4134 30.9937 87.9596 30.2821 87.6397 29.4726C87.3263 28.6565 87.1697 27.7751 87.1697 26.8285ZM106.828 20.1399C107.631 20.1399 108.333 20.2281 108.933 20.4044C109.534 20.5806 110.017 20.7667 110.383 20.9626C110.748 21.1584 110.97 21.289 111.048 21.3543L109.638 23.7144C109.534 23.636 109.354 23.5218 109.1 23.3716C108.852 23.2214 108.554 23.0876 108.208 22.9701C107.869 22.8526 107.513 22.7938 107.141 22.7938C106.638 22.7938 106.23 22.8852 105.917 23.068C105.61 23.2443 105.457 23.5087 105.457 23.8612C105.457 24.1028 105.538 24.3215 105.702 24.5174C105.871 24.7067 106.126 24.8895 106.465 25.0658C106.811 25.2355 107.249 25.4216 107.778 25.624C108.261 25.8002 108.714 26.0092 109.139 26.2507C109.563 26.4923 109.935 26.7795 110.255 27.1125C110.582 27.4389 110.84 27.8176 111.029 28.2485C111.218 28.6794 111.313 29.169 111.313 29.7174C111.313 30.3703 111.179 30.9383 110.911 31.4214C110.644 31.898 110.278 32.2929 109.815 32.6063C109.358 32.9197 108.835 33.1514 108.248 33.3016C107.667 33.4583 107.063 33.5366 106.436 33.5366C105.548 33.5366 104.752 33.4354 104.047 33.2331C103.348 33.0307 102.783 32.812 102.352 32.5769C101.921 32.3419 101.664 32.1852 101.579 32.1069L103.038 29.6489C103.116 29.7076 103.266 29.8023 103.488 29.9328C103.717 30.0634 103.994 30.2005 104.321 30.3441C104.647 30.4812 104.993 30.5988 105.359 30.6967C105.731 30.7946 106.096 30.8436 106.456 30.8436C107.056 30.8436 107.507 30.7293 107.807 30.5008C108.107 30.2658 108.257 29.959 108.257 29.5803C108.257 29.2996 108.163 29.0482 107.973 28.8262C107.784 28.6043 107.5 28.3954 107.121 28.1995C106.743 27.9971 106.269 27.7849 105.702 27.563C105.134 27.3345 104.601 27.057 104.105 26.7306C103.616 26.4041 103.217 25.9961 102.911 25.5065C102.604 25.0168 102.45 24.4097 102.45 23.685C102.45 22.9603 102.653 22.3336 103.057 21.8047C103.469 21.2694 104.007 20.8581 104.673 20.5708C105.346 20.2836 106.064 20.1399 106.828 20.1399ZM115.486 22.9407H112.401V20.375H121.489V22.9407H118.414V33.3016H115.486V22.9407ZM125.818 20.375H128.726L133.829 33.3016H130.705L129.764 30.7065H124.79L123.84 33.3016H120.706L125.818 20.375ZM125.769 28.1407H128.795L127.297 23.9004H127.267L125.769 28.1407Z" fill="#082F49"/>
<path d="M39.9407 20.375H42.8687V30.7359H47.5595V33.3016H39.9407V20.375ZM49.4639 20.375H57.7194V22.9407H52.3822V25.575H57.6704V28.0624H52.3822V30.7359H57.7194V33.3016H49.4639V20.375ZM62.5606 26.8285C62.5606 27.5662 62.7107 28.2354 63.011 28.836C63.3179 29.4301 63.739 29.9035 64.2743 30.256C64.8162 30.6086 65.4429 30.7848 66.1546 30.7848C66.8662 30.7848 67.4897 30.6086 68.025 30.256C68.5669 29.9035 68.988 29.4301 69.2883 28.836C69.5951 28.2354 69.7486 27.5662 69.7486 26.8285C69.7486 26.0908 69.5951 25.4248 69.2883 24.8307C68.988 24.2366 68.5669 23.7633 68.025 23.4108C67.4897 23.0517 66.8662 22.8722 66.1546 22.8722C65.4429 22.8722 64.8162 23.0517 64.2743 23.4108C63.739 23.7633 63.3179 24.2366 63.011 24.8307C62.7107 25.4248 62.5606 26.0908 62.5606 26.8285ZM59.515 26.8285C59.515 25.8884 59.6815 25.0135 60.0144 24.204C60.3474 23.3879 60.8142 22.6763 61.4148 22.0691C62.0154 21.462 62.7205 20.9887 63.5301 20.6492C64.3396 20.3097 65.2144 20.1399 66.1546 20.1399C67.1077 20.1399 67.9858 20.3097 68.7889 20.6492C69.5984 20.9887 70.3002 21.462 70.8943 22.0691C71.495 22.6763 71.9585 23.3879 72.2849 24.204C72.6179 25.0135 72.7844 25.8884 72.7844 26.8285C72.7844 27.7751 72.6244 28.6565 72.3045 29.4726C71.9846 30.2821 71.5276 30.9937 70.9335 31.6074C70.3394 32.2146 69.6376 32.6879 68.828 33.0274C68.0185 33.3669 67.1273 33.5366 66.1546 33.5366C65.1622 33.5366 64.258 33.3669 63.4419 33.0274C62.6324 32.6879 61.9338 32.2146 61.3462 31.6074C60.7587 30.9937 60.3049 30.2821 59.985 29.4726C59.6717 28.6565 59.515 27.7751 59.515 26.8285Z" fill="#F97316"/>
</svg>
